<svg width="17" height="17" viewBox="0 0 17 17" fill="none" xmlns="http://www.w3.org/2000/svg">
<path id="Vector" d="M16.8086 15.8844L12.7208 11.7974C13.9056 10.3749 14.4964 8.55047 14.3703 6.70351C14.2442 4.85656 13.4109 3.12931 12.0437 1.8811C10.6766 0.632883 8.88084 -0.040203 7.03006 0.00185901C5.17928 0.043921 3.41597 0.797893 2.10693 2.10693C0.797893 3.41597 0.043921 5.17928 0.00185901 7.03006C-0.040203 8.88084 0.632883 10.6766 1.8811 12.0437C3.12931 13.4109 4.85656 14.2442 6.70351 14.3703C8.55047 14.4964 10.3749 13.9056 11.7974 12.7208L15.8844 16.8086C15.9451 16.8693 16.0171 16.9174 16.0964 16.9503C16.1757 16.9831 16.2607 17 16.3465 17C16.4323 17 16.5173 16.9831 16.5966 16.9503C16.6759 16.9174 16.7479 16.8693 16.8086 16.8086C16.8693 16.7479 16.9174 16.6759 16.9503 16.5966C16.9831 16.5173 17 16.4323 17 16.3465C17 16.2607 16.9831 16.1757 16.9503 16.0964C16.9174 16.0171 16.8693 15.9451 16.8086 15.8844ZM1.32432 7.20256C1.32432 6.03996 1.66907 4.90346 2.31498 3.93679C2.96089 2.97012 3.87895 2.21669 4.95306 1.77178C6.02717 1.32687 7.20909 1.21046 8.34935 1.43727C9.48962 1.66408 10.537 2.22393 11.3591 3.04602C12.1812 3.86811 12.741 4.91551 12.9679 6.05578C13.1947 7.19604 13.0783 8.37796 12.6334 9.45207C12.1884 10.5262 11.435 11.4442 10.4683 12.0901C9.50167 12.7361 8.36517 13.0808 7.20256 13.0808C5.64409 13.0791 4.14994 12.4592 3.04793 11.3572C1.94592 10.2552 1.32605 8.76104 1.32432 7.20256Z" fill="black"/>
</svg>
