<svg width="423" height="423" viewBox="0 0 423 423" fill="none" xmlns="http://www.w3.org/2000/svg">
<path d="M0.62207 40.0029V79.3837H40.0029H79.3837V40.0029V0.622098H40.0029H0.62207V40.0029ZM69.2209 40.0029V69.2209H40.0029H10.7849V40.0029V10.7849H40.0029H69.2209V40.0029Z" fill="black"/>
<path d="M23.4883 40.0029V56.5174H40.0028H56.5174V40.0029V23.4884H40.0028H23.4883V40.0029Z" fill="black"/>
<path d="M92.0872 5.44939C92.0872 9.00637 93.6116 10.7849 97.1686 10.7849C99.9633 10.7849 102.504 11.8011 102.504 13.3256C102.758 14.5959 103.012 17.3907 103.266 18.9151C103.266 20.9476 108.094 22.4721 114.445 22.9802C123.846 23.7424 125.116 23.2343 125.116 18.661C125.116 15.104 123.592 13.3256 120.289 13.3256C116.986 13.3256 114.953 11.293 114.445 7.48195C113.937 2.90869 111.905 1.63834 103.012 1.1302C93.3575 0.367995 92.0872 0.876135 92.0872 5.44939Z" fill="black"/>
<path d="M127.657 5.44942C127.657 9.26046 129.181 10.7849 132.992 10.7849C136.549 10.7849 137.82 9.51453 137.312 6.4657C136.041 -0.140119 127.657 -0.902328 127.657 5.44942Z" fill="black"/>
<path d="M150.015 6.21161C149.507 10.0227 147.22 12.3093 143.663 12.8174C139.852 13.3256 137.82 15.3581 137.82 18.661C137.82 21.7099 136.041 23.4884 132.992 23.4884C129.689 23.4884 127.657 25.5209 127.149 29.0779C126.387 34.1593 124.608 34.9215 114.191 35.6837C104.283 36.4459 101.996 37.2081 102.758 40.7651C103.266 43.0517 106.061 45.3384 109.364 45.8465C112.921 46.3546 114.953 48.3872 114.953 51.436C114.953 54.4849 116.986 56.5174 120.797 57.0256C124.354 57.5337 126.641 59.8203 127.149 63.6314C127.657 67.4424 129.435 69.2209 132.23 68.7128C135.279 68.2046 136.803 64.9017 137.312 57.2796L138.074 46.6087L160.178 45.8465C178.471 45.0843 182.282 44.3221 183.044 40.7651C183.552 37.9703 181.774 36.1918 177.963 35.6837C174.152 35.1756 171.865 32.8889 171.357 29.0779C170.849 25.5209 168.816 23.4884 165.767 23.4884C161.956 23.4884 160.94 21.2017 160.178 12.8174C159.67 4.94127 158.145 1.63836 155.096 1.13022C152.302 0.62208 150.523 2.40057 150.015 6.21161Z" fill="black"/>
<path d="M206.419 17.1366V33.6512H229.285C251.897 33.6512 252.151 33.6512 252.151 40.0029C252.151 46.3547 251.897 46.3547 229.285 46.3547C206.673 46.3547 206.419 46.3547 206.419 52.7064C206.419 57.2797 205.148 59.0582 201.337 59.0582C198.034 59.0582 196.256 60.8366 196.256 64.1395C196.256 67.4425 198.034 69.2209 201.337 69.2209C204.64 69.2209 206.419 70.9994 206.419 74.3023C206.419 77.6052 208.197 79.3837 211.246 79.3837C215.311 79.3837 216.327 77.3512 217.09 68.4587C217.598 59.5663 218.868 57.5337 223.695 57.0256C228.777 56.2634 229.285 57.2797 229.285 67.6965C229.285 77.6052 230.047 79.3837 234.112 79.3837C238.177 79.3837 239.194 77.3512 239.956 68.4587C240.464 59.5663 241.734 57.5337 246.562 57.0256C251.897 56.2634 252.151 57.0256 252.151 74.0483V92.0872H217.852H183.552V109.872V127.657H160.686C138.074 127.657 137.82 127.657 137.82 121.305C137.82 115.208 138.328 114.954 154.334 114.954H170.849V103.52V92.0872H154.334C139.598 92.0872 137.82 91.5791 137.82 87.2599C137.82 83.957 135.787 81.9244 132.23 81.4163C128.419 80.9082 126.133 78.6215 125.624 74.8105C125.116 71.2535 123.084 69.2209 119.781 69.2209C115.716 69.2209 114.954 70.9994 114.954 80.6541C114.954 90.5628 115.716 92.0872 120.289 92.0872C123.338 92.0872 126.133 94.1198 126.895 97.1686C127.657 99.9634 130.452 102.25 132.992 102.25C136.549 102.25 137.82 104.029 137.82 108.602C137.82 113.175 136.549 114.954 132.992 114.954C128.927 114.954 127.911 116.986 127.149 125.624C126.641 134.771 125.37 136.804 120.797 137.312C115.462 138.074 114.954 137.058 114.954 126.641C114.954 116.732 115.716 114.954 120.035 114.954C123.338 114.954 125.116 113.175 125.116 109.872C125.116 106.569 123.338 104.791 120.289 104.791C116.986 104.791 114.954 102.758 114.445 98.9471C113.937 95.3901 111.905 93.3576 108.602 93.3576C104.537 93.3576 103.266 95.3901 102.758 104.029C101.996 112.921 100.98 114.954 96.9146 114.954C93.8657 114.954 92.0872 116.732 92.0872 120.035C92.0872 123.338 93.8657 125.116 97.1686 125.116C100.98 125.116 102.25 126.895 102.25 131.468C102.25 137.566 101.742 137.82 85.7355 137.82C70.9994 137.82 69.2209 138.328 69.2209 142.901C69.2209 147.22 70.9994 147.983 80.6541 147.983C91.071 147.983 92.0872 148.491 92.0872 154.334C92.0872 158.908 93.3576 160.686 97.1686 160.686C100.98 160.686 102.25 158.908 102.25 154.334C102.25 149.253 103.52 147.983 108.602 147.983C113.683 147.983 114.954 149.253 114.954 154.334C114.954 160.178 115.97 160.686 126.387 160.686C136.041 160.686 137.82 161.448 137.82 165.767C137.82 169.07 139.598 170.849 142.901 170.849C146.204 170.849 147.983 169.07 147.983 165.767C147.983 162.465 146.204 160.686 142.901 160.686C139.09 160.686 137.82 158.908 137.82 154.334C137.82 149.761 139.09 147.983 142.901 147.983C146.204 147.983 147.983 146.204 147.983 142.901C147.983 139.09 149.761 137.82 154.08 137.82C159.67 137.82 160.432 139.09 161.194 148.491C161.956 159.416 161.956 159.416 172.881 160.178C181.52 160.94 183.552 161.956 183.552 166.022C183.552 170.087 185.331 170.849 194.986 170.849C205.402 170.849 206.419 171.357 206.419 177.201C206.419 183.552 206.165 183.552 183.552 183.552C160.94 183.552 160.686 183.552 160.686 189.904C160.686 195.748 159.67 196.256 149.253 196.256H137.82V184.823V173.39H126.387C116.732 173.39 114.954 174.152 114.954 178.217C114.954 181.52 116.986 183.552 120.797 184.06C125.37 184.569 126.641 186.601 127.149 195.494L127.911 206.419H149.253C169.324 206.419 170.595 206.165 171.357 200.575C172.119 195.748 173.644 194.985 183.552 194.985C193.461 194.985 194.986 195.748 195.748 200.829C196.764 208.451 204.894 207.181 205.911 199.305C206.419 195.748 208.451 193.715 211.754 193.715C214.803 193.715 216.581 191.937 216.581 188.634C216.581 184.823 218.36 183.552 222.933 183.552C227.506 183.552 229.285 184.823 229.285 188.634C229.285 193.461 231.063 193.715 252.151 193.715C274.763 193.715 275.017 193.715 275.017 200.067C275.017 204.64 273.747 206.419 269.936 206.419C266.633 206.419 264.855 208.197 264.855 211.5C264.855 216.073 266.633 216.581 281.369 216.581H297.884V239.194C297.884 260.79 298.138 262.06 303.727 262.822C307.284 263.33 309.571 265.617 310.079 269.174C310.841 274.763 310.079 275.017 293.056 275.017C276.796 275.017 275.017 275.526 275.017 280.099C275.017 284.926 276.796 285.18 297.884 285.18C320.496 285.18 320.75 285.18 320.75 291.532C320.75 297.884 320.496 297.884 297.884 297.884C276.796 297.884 275.017 297.63 275.017 292.802C275.017 289.499 273.239 287.721 269.936 287.721C266.633 287.721 264.855 289.499 264.855 292.802C264.855 296.105 266.633 297.884 269.936 297.884C273.747 297.884 275.017 299.662 275.017 304.235C275.017 308.809 273.747 310.587 269.936 310.587C266.633 310.587 264.855 312.366 264.855 315.669C264.855 319.48 263.076 320.75 258.503 320.75C253.422 320.75 252.151 319.48 252.151 314.398C252.151 309.825 253.422 308.047 257.233 308.047C260.536 308.047 262.314 306.268 262.314 302.965C262.314 298.392 260.536 297.884 245.799 297.884C231.063 297.884 229.285 297.376 229.285 292.802C229.285 289.499 227.506 287.721 224.204 287.721C220.901 287.721 219.122 289.499 219.122 292.802C219.122 296.105 220.901 297.884 224.204 297.884C227.506 297.884 229.285 299.662 229.285 302.711C229.285 306.014 231.317 308.047 235.129 308.555C238.686 309.063 240.972 311.349 241.48 315.16C241.988 318.717 244.021 320.75 247.324 320.75C250.373 320.75 252.151 322.529 252.151 325.577C252.151 328.88 254.184 330.913 257.995 331.421C261.552 331.929 263.838 334.216 264.347 337.773C265.109 343.108 264.092 343.616 253.676 343.616C243.767 343.616 241.988 344.379 241.988 348.444C241.988 352.509 244.021 353.525 252.913 354.287C261.806 354.795 263.838 356.066 264.347 360.639C265.109 366.229 264.601 366.483 242.242 366.483C221.155 366.483 219.122 366.991 219.122 371.31C219.122 375.375 221.155 376.391 230.047 377.154C240.718 377.916 240.718 377.916 241.48 388.841C242.242 397.479 243.259 399.512 247.324 399.512C251.389 399.512 252.151 397.733 252.151 388.079V376.645H263.584C273.239 376.645 275.017 375.883 275.017 371.564C275.017 368.261 276.796 366.483 280.099 366.483C283.402 366.483 285.18 364.704 285.18 361.401C285.18 358.098 283.402 356.32 280.099 356.32C275.526 356.32 275.017 354.541 275.017 338.535V320.75H286.451H297.884V332.183C297.884 341.838 297.122 343.616 292.802 343.616C289.499 343.616 287.721 345.395 287.721 348.698C287.721 353.271 289.499 353.779 304.236 353.779C320.242 353.779 320.75 354.033 320.75 360.131C320.75 366.229 320.242 366.483 304.236 366.483C289.499 366.483 287.721 366.991 287.721 371.31C287.721 375.375 289.754 376.391 298.646 377.154C307.538 377.662 309.571 378.932 310.079 383.759C310.841 389.095 310.079 389.349 293.056 389.349C275.526 389.349 275.017 389.603 275.017 395.701C275.017 401.544 274.001 402.052 263.584 402.052H252.151V412.215V422.378H263.584C273.239 422.378 275.017 421.616 275.017 417.297C275.017 413.994 276.796 412.215 279.845 412.215C283.148 412.215 285.18 410.183 285.688 406.372C286.197 402.815 288.483 400.528 292.294 400.02C296.867 399.258 297.884 400.274 297.884 405.609C297.884 410.437 296.613 412.215 292.802 412.215C289.499 412.215 287.721 413.994 287.721 417.297C287.721 421.616 289.499 422.378 297.63 422.378C307.792 422.378 307.792 422.378 308.555 411.453C309.063 402.56 310.333 400.528 315.161 400.02C319.988 399.258 320.75 397.733 320.75 387.824V376.391L338.027 377.154C353.525 377.916 355.049 378.424 355.812 383.759C356.32 387.316 358.352 389.349 361.655 389.349C364.704 389.349 366.483 391.127 366.483 394.176C366.483 397.479 368.515 399.512 372.326 400.02C375.883 400.528 378.17 402.815 378.678 406.626C379.186 410.183 381.219 412.215 384.522 412.215C387.57 412.215 389.349 413.994 389.349 417.297C389.349 421.87 391.127 422.378 405.863 422.378C420.599 422.378 422.378 421.87 422.378 417.297C422.378 413.994 420.599 412.215 417.297 412.215C413.486 412.215 412.215 410.437 412.215 405.863C412.215 401.29 413.486 399.512 417.297 399.512C420.599 399.512 422.378 397.733 422.378 394.43C422.378 389.603 420.599 389.349 399.512 389.349H376.645V377.916C376.645 367.499 377.154 366.483 382.997 366.483C387.57 366.483 389.349 367.753 389.349 371.564C389.349 374.867 391.127 376.645 394.43 376.645C397.733 376.645 399.512 374.867 399.512 371.564C399.512 367.753 401.29 366.483 405.863 366.483C410.945 366.483 412.215 365.212 412.215 360.131C412.215 355.558 413.486 353.779 417.297 353.779C420.599 353.779 422.378 352.001 422.378 348.698C422.378 344.124 420.599 343.616 405.863 343.616C391.127 343.616 389.349 343.108 389.349 338.789C389.349 335.486 387.316 333.454 383.759 332.945C379.948 332.437 377.662 330.151 377.154 326.34C376.391 321.258 374.867 320.75 359.877 320.75C344.124 320.75 343.616 320.496 343.616 314.398C343.616 309.825 344.887 308.047 348.698 308.047C352.001 308.047 353.779 306.268 353.779 302.965C353.779 299.662 352.001 297.884 348.698 297.884C344.887 297.884 343.616 296.105 343.616 291.532C343.616 286.959 344.887 285.18 348.698 285.18C352.001 285.18 353.779 283.402 353.779 280.099C353.779 276.288 355.558 275.017 360.131 275.017C365.212 275.017 366.483 273.747 366.483 268.666C366.483 262.822 367.499 262.314 377.916 262.314C387.57 262.314 389.349 261.552 389.349 257.233C389.349 253.93 391.127 252.151 394.43 252.151C397.733 252.151 399.512 250.373 399.512 247.07C399.512 243.767 397.733 241.988 394.43 241.988C391.127 241.988 389.349 243.767 389.349 247.07C389.349 250.881 387.57 252.151 382.997 252.151C378.424 252.151 376.645 250.881 376.645 247.07C376.645 243.767 374.867 241.988 371.564 241.988C368.261 241.988 366.483 243.767 366.483 247.07C366.483 250.373 364.704 252.151 361.655 252.151C358.352 252.151 356.32 254.184 355.812 257.741C355.304 261.552 353.017 263.838 349.46 264.347C345.649 264.855 343.616 266.887 343.616 270.19C343.616 273.747 341.838 275.017 337.265 275.017C332.691 275.017 330.913 273.747 330.913 269.936C330.913 266.633 329.134 264.855 325.831 264.855C321.512 264.855 320.75 263.076 320.75 253.676C320.75 243.767 319.988 242.242 315.161 241.48C309.571 240.718 309.317 239.448 308.555 218.36C307.792 198.288 307.284 196.256 302.965 196.256C299.662 196.256 297.884 198.034 297.884 201.337C297.884 205.148 296.105 206.419 291.532 206.419C285.688 206.419 285.18 205.402 285.18 195.24C285.18 185.331 285.942 183.806 291.024 183.044C295.597 182.536 296.867 180.504 297.376 171.611C298.138 160.94 298.138 160.94 308.809 160.178C319.48 159.416 319.48 159.416 320.242 148.491C321.004 138.582 320.496 137.82 314.652 137.82C309.825 137.82 308.047 136.549 308.047 132.738C308.047 129.435 306.268 127.657 302.965 127.657C298.646 127.657 297.884 129.435 297.884 139.09C297.884 148.745 297.122 150.523 292.802 150.523C289.499 150.523 287.721 152.302 287.721 155.605C287.721 159.416 285.942 160.686 281.369 160.686C275.526 160.686 275.017 161.702 275.017 172.119C275.017 182.536 274.509 183.552 268.666 183.552C264.092 183.552 262.314 182.282 262.314 178.471C262.314 175.168 260.536 173.39 257.233 173.39C253.93 173.39 252.151 175.168 252.151 178.471C252.151 182.282 250.373 183.552 245.545 183.552C240.21 183.552 239.194 182.536 239.956 177.709C240.464 174.152 242.751 171.865 246.562 171.357C254.184 170.087 252.913 162.21 245.037 161.194C240.718 160.432 239.448 158.908 239.956 154.842C240.464 150.269 242.751 148.999 251.643 148.491C260.281 147.729 262.314 146.712 262.314 142.647C262.314 138.582 260.536 137.82 250.881 137.82C241.226 137.82 239.448 137.058 239.448 132.738C239.448 128.419 237.669 127.657 229.285 127.657C220.901 127.657 219.122 128.419 219.122 132.738C219.122 136.041 220.901 137.82 224.204 137.82C228.523 137.82 229.285 139.598 229.285 149.253V160.686H211.246C194.223 160.686 193.461 160.432 194.223 154.842C194.731 150.269 196.764 148.999 205.911 148.491C214.549 147.729 216.581 146.712 216.581 142.647C216.581 138.582 214.803 137.82 204.894 137.82C194.477 137.82 193.461 137.312 194.223 131.976C194.731 127.403 196.764 126.133 205.656 125.624C216.327 124.862 216.327 124.862 217.09 114.191L217.852 103.52L235.129 102.758C251.897 101.996 252.151 101.996 252.151 108.602C252.151 113.175 250.881 114.954 247.07 114.954C243.767 114.954 241.988 116.732 241.988 120.035C241.988 123.338 243.767 125.116 247.07 125.116C250.373 125.116 252.151 123.338 252.151 120.035C252.151 116.732 253.93 114.954 257.233 114.954C261.806 114.954 262.314 112.921 262.822 86.2436L263.584 57.7878L274.509 57.0256C283.148 56.2634 285.18 55.2471 285.18 51.182C285.18 47.1169 283.402 46.3547 273.747 46.3547H262.314V34.9215V23.4884H250.881C241.226 23.4884 239.448 22.7262 239.448 18.407C239.448 15.1041 237.669 13.3256 234.366 13.3256C231.063 13.3256 229.285 15.1041 229.285 18.407C229.285 22.218 227.506 23.4884 222.933 23.4884C217.09 23.4884 216.581 22.4721 216.581 12.0552C216.581 2.40059 215.819 0.622103 211.5 0.622103C206.927 0.622103 206.419 2.40059 206.419 17.1366ZM206.419 108.602C206.419 113.683 205.148 114.954 200.067 114.954C195.494 114.954 193.715 113.683 193.715 110.38C193.715 107.84 194.477 104.791 195.494 104.029C196.256 103.012 199.305 102.25 201.845 102.25C205.148 102.25 206.419 104.029 206.419 108.602ZM183.552 144.426C183.552 149.761 182.536 150.777 177.963 150.015C174.152 149.507 171.865 147.22 171.357 143.409C170.595 138.836 171.611 137.82 176.947 137.82C182.282 137.82 183.552 139.09 183.552 144.426ZM332.945 303.473C332.437 307.284 330.151 309.571 326.594 310.079C322.783 310.587 320.75 312.62 320.75 315.923C320.75 319.48 318.972 320.75 314.144 320.75C308.809 320.75 307.792 319.734 308.555 314.906C309.063 311.349 311.349 309.063 315.161 308.555C318.717 308.047 320.75 306.014 320.75 302.711C320.75 299.154 322.529 297.884 327.356 297.884C332.691 297.884 333.708 298.9 332.945 303.473ZM366.483 348.698V366.483H348.698H330.913V350.476C330.913 341.584 331.675 333.454 332.691 332.691C333.454 331.675 341.584 330.913 350.476 330.913H366.483V348.698ZM401.544 406.372C402.306 411.199 401.29 412.215 395.955 412.215C390.619 412.215 389.349 410.945 389.349 405.609C389.349 400.274 390.365 399.258 395.193 400.02C398.749 400.528 401.036 402.815 401.544 406.372Z" fill="black"/>
<path d="M343.616 348.698C343.616 352.001 345.395 353.779 348.698 353.779C352.001 353.779 353.779 352.001 353.779 348.698C353.779 345.395 352.001 343.616 348.698 343.616C345.395 343.616 343.616 345.395 343.616 348.698Z" fill="black"/>
<path d="M252.151 5.44941C252.151 8.75232 254.184 10.7849 257.995 11.293C261.552 11.8012 263.838 14.0878 264.346 17.6448C265.109 22.7262 266.633 23.4884 276.542 23.4884C285.942 23.4884 287.721 24.2506 287.721 28.5698C287.721 31.8727 289.499 33.6512 292.802 33.6512C297.121 33.6512 297.884 31.8727 297.884 23.7424C297.884 15.3581 296.867 13.5796 292.294 12.8174C288.483 12.3093 286.196 10.0227 285.688 6.21162C284.926 1.13022 283.402 0.622083 268.412 0.622083C253.93 0.622083 252.151 1.13022 252.151 5.44941Z" fill="black"/>
<path d="M297.884 5.70349C297.884 9.00639 299.662 10.7849 302.965 10.7849C306.268 10.7849 308.047 9.00639 308.047 5.70349C308.047 2.40058 306.268 0.622091 302.965 0.622091C299.662 0.622091 297.884 2.40058 297.884 5.70349Z" fill="black"/>
<path d="M343.616 40.0029V79.3837H382.997H422.378V40.0029V0.622098H382.997H343.616V40.0029ZM412.215 40.0029V69.2209H382.997H353.779V41.7814C353.779 26.5372 354.541 13.3256 355.557 12.5634C356.32 11.5471 369.531 10.7849 384.776 10.7849H412.215V40.0029Z" fill="black"/>
<path d="M368.261 25.2668C367.245 26.0291 366.482 33.6511 366.482 41.7814V56.5174H382.997H399.511V40.0029V23.4884H384.775C376.645 23.4884 369.023 24.2506 368.261 25.2668Z" fill="black"/>
<path d="M173.39 18.661C173.39 25.0128 181.774 24.2506 183.044 17.6448C183.552 14.5959 182.282 13.3256 178.725 13.3256C174.914 13.3256 173.39 14.85 173.39 18.661Z" fill="black"/>
<path d="M310.587 23.4884C310.587 31.8727 311.349 33.6511 315.669 33.6511C319.988 33.6511 320.75 35.4296 320.75 46.3546V59.0581H309.317H297.884V69.2209C297.884 77.6052 298.646 79.3837 302.965 79.3837C306.268 79.3837 308.047 77.6052 308.047 74.3023C308.047 70.4913 309.825 69.2209 314.398 69.2209C322.529 69.2209 323.545 79.1296 315.669 81.1622C312.874 81.9244 310.587 84.7192 310.587 87.2599C310.587 91.325 308.555 92.0872 299.154 92.0872C289.499 92.0872 287.721 92.8494 287.721 97.1686C287.721 101.742 289.499 102.25 304.235 102.25H320.75V113.683V125.116H332.183C342.6 125.116 343.616 125.624 343.616 131.468C343.616 136.041 342.346 137.82 338.535 137.82C335.232 137.82 333.454 139.598 333.454 142.901C333.454 147.22 335.232 147.983 343.362 147.983C353.525 147.983 353.525 147.983 354.287 137.058C354.795 128.165 356.066 126.133 360.893 125.624C369.023 124.354 368.515 114.953 360.131 114.953C355.558 114.953 353.779 113.683 353.779 110.126C353.779 106.061 351.747 105.045 343.108 104.283L332.183 103.52L331.421 58.2959L330.913 13.3256H320.75C310.587 13.3256 310.587 13.3256 310.587 23.4884Z" fill="black"/>
<path d="M92.0872 28.5698C92.0872 31.8727 93.8656 33.6512 97.1686 33.6512C100.471 33.6512 102.25 31.8727 102.25 28.5698C102.25 25.2669 100.471 23.4884 97.1686 23.4884C93.8656 23.4884 92.0872 25.2669 92.0872 28.5698Z" fill="black"/>
<path d="M183.552 28.5698C183.552 31.8727 185.331 33.6512 188.634 33.6512C191.937 33.6512 193.715 31.8727 193.715 28.5698C193.715 25.2669 191.937 23.4884 188.634 23.4884C185.331 23.4884 183.552 25.2669 183.552 28.5698Z" fill="black"/>
<path d="M92.0872 69.2209C92.0872 77.6052 92.8494 79.3837 97.1686 79.3837C101.488 79.3837 102.25 77.6052 102.25 69.2209C102.25 60.8366 101.488 59.0581 97.1686 59.0581C92.8494 59.0581 92.0872 60.8366 92.0872 69.2209Z" fill="black"/>
<path d="M150.523 64.3936C150.523 67.9506 151.794 69.2209 154.842 68.7128C161.448 67.4424 162.21 59.0581 155.859 59.0581C152.048 59.0581 150.523 60.5825 150.523 64.3936Z" fill="black"/>
<path d="M173.39 64.3936C173.39 70.7453 181.774 69.9831 183.044 63.3773C183.552 60.3285 182.282 59.0581 178.725 59.0581C174.914 59.0581 173.39 60.5825 173.39 64.3936Z" fill="black"/>
<path d="M137.82 74.3023C137.82 77.6052 139.598 79.3837 142.901 79.3837C146.204 79.3837 147.983 77.6052 147.983 74.3023C147.983 70.9994 146.204 69.2209 142.901 69.2209C139.598 69.2209 137.82 70.9994 137.82 74.3023Z" fill="black"/>
<path d="M160.686 74.3023C160.686 77.6052 162.465 79.3837 165.767 79.3837C169.07 79.3837 170.849 77.6052 170.849 74.3023C170.849 70.9994 169.07 69.2209 165.767 69.2209C162.465 69.2209 160.686 70.9994 160.686 74.3023Z" fill="black"/>
<path d="M183.552 74.3023C183.552 77.6052 185.331 79.3837 188.634 79.3837C191.937 79.3837 193.715 77.6052 193.715 74.3023C193.715 70.9994 191.937 69.2209 188.634 69.2209C185.331 69.2209 183.552 70.9994 183.552 74.3023Z" fill="black"/>
<path d="M275.526 79.8919C276.034 87.768 277.558 91.0709 280.861 91.5791C284.418 92.3413 285.18 90.5628 285.18 80.9082C285.18 70.7454 284.418 69.2209 279.845 69.2209C275.271 69.2209 274.763 70.4913 275.526 79.8919Z" fill="black"/>
<path d="M173.39 87.2599C173.39 93.6116 181.774 92.8494 183.044 86.2436C183.552 83.1948 182.282 81.9244 178.725 81.9244C174.914 81.9244 173.39 83.4488 173.39 87.2599Z" fill="black"/>
<path d="M0.62207 97.1686C0.62207 100.472 2.40056 102.25 5.70347 102.25C9.00637 102.25 10.7849 100.472 10.7849 97.1686C10.7849 93.8657 9.00637 92.0872 5.70347 92.0872C2.40056 92.0872 0.62207 93.8657 0.62207 97.1686Z" fill="black"/>
<path d="M23.4884 109.872V127.657H12.0552C2.40056 127.657 0.62207 128.419 0.62207 132.738C0.62207 136.041 2.40056 137.82 5.70347 137.82C9.00637 137.82 10.7849 139.598 10.7849 142.901C10.7849 146.712 12.5633 147.983 17.1366 147.983C21.7099 147.983 23.4884 146.712 23.4884 142.901C23.4884 139.598 25.2668 137.82 28.5697 137.82C32.8889 137.82 33.6511 136.041 33.6511 126.641C33.6511 116.732 34.4134 115.208 39.2407 114.445C47.1168 113.429 48.3872 105.299 40.7651 104.283C36.954 103.774 34.6674 101.488 34.1593 97.6767C33.6511 94.1198 31.6186 92.0872 28.3157 92.0872C23.9965 92.0872 23.4884 94.1198 23.4884 109.872Z" fill="black"/>
<path d="M69.2209 96.9145C69.2209 101.488 70.7454 102.25 80.9082 102.25C90.5628 102.25 92.3413 101.488 91.5791 97.6767C91.0709 94.6279 87.768 93.1035 79.8919 92.5953C70.4913 91.8331 69.2209 92.3413 69.2209 96.9145Z" fill="black"/>
<path d="M356.32 97.1686C356.32 100.472 358.098 102.25 361.401 102.25C364.704 102.25 366.483 100.472 366.483 97.1686C366.483 93.8657 364.704 92.0872 361.401 92.0872C358.098 92.0872 356.32 93.8657 356.32 97.1686Z" fill="black"/>
<path d="M389.349 97.1686C389.349 100.472 391.127 102.25 394.43 102.25C397.733 102.25 399.512 100.472 399.512 97.1686C399.512 93.8657 397.733 92.0872 394.43 92.0872C391.127 92.0872 389.349 93.8657 389.349 97.1686Z" fill="black"/>
<path d="M412.215 103.52V114.954H395.701C380.965 114.954 379.186 115.462 379.186 120.035C379.186 123.338 380.965 125.116 384.268 125.116C388.079 125.116 389.349 126.895 389.349 131.468C389.349 136.549 390.619 137.82 395.701 137.82C400.274 137.82 402.052 139.09 402.052 142.901C402.052 146.204 403.831 147.983 407.134 147.983C410.945 147.983 412.215 149.761 412.215 154.334C412.215 160.178 411.199 160.686 400.782 160.686C391.127 160.686 389.349 159.924 389.349 155.605C389.349 152.302 387.57 150.523 384.268 150.523C380.965 150.523 379.186 152.302 379.186 155.605C379.186 159.416 377.408 160.686 372.834 160.686C368.261 160.686 366.483 159.416 366.483 155.605C366.483 152.302 364.704 150.523 361.401 150.523C358.098 150.523 356.32 152.302 356.32 155.605C356.32 159.924 354.541 160.686 344.887 160.686H333.454V172.119V183.552H343.362C351.747 183.552 353.525 182.536 354.287 177.709C355.05 172.373 356.066 172.119 383.759 171.357C410.183 170.849 412.215 170.341 412.215 165.767C412.215 162.465 413.994 160.686 417.297 160.686C422.124 160.686 422.378 158.908 422.378 126.387C422.378 93.8657 422.124 92.0872 417.297 92.0872C412.977 92.0872 412.215 93.8657 412.215 103.52Z" fill="black"/>
<path d="M59.0581 110.126C59.0581 113.683 60.3285 114.953 63.3773 114.445C69.9831 113.175 70.7453 104.791 64.3936 104.791C60.5825 104.791 59.0581 106.315 59.0581 110.126Z" fill="black"/>
<path d="M275.526 109.11C276.796 115.716 285.18 116.478 285.18 110.126C285.18 106.315 283.656 104.791 279.845 104.791C276.288 104.791 275.018 106.061 275.526 109.11Z" fill="black"/>
<path d="M366.991 109.11C368.261 115.716 376.645 116.478 376.645 110.126C376.645 106.315 375.121 104.791 371.31 104.791C367.753 104.791 366.483 106.061 366.991 109.11Z" fill="black"/>
<path d="M46.3547 126.387C46.3547 136.041 47.1169 137.82 51.4361 137.82C55.7553 137.82 56.5175 136.041 56.5175 126.387C56.5175 116.732 55.7553 114.953 51.4361 114.953C47.1169 114.953 46.3547 116.732 46.3547 126.387Z" fill="black"/>
<path d="M69.2209 120.035C69.2209 123.338 70.9994 125.116 74.3023 125.116C77.6052 125.116 79.3837 123.338 79.3837 120.035C79.3837 116.732 77.6052 114.953 74.3023 114.953C70.9994 114.953 69.2209 116.732 69.2209 120.035Z" fill="black"/>
<path d="M275.017 132.738C275.017 136.041 276.796 137.82 280.099 137.82C283.402 137.82 285.18 136.041 285.18 132.738C285.18 129.435 283.402 127.657 280.099 127.657C276.796 127.657 275.017 129.435 275.017 132.738Z" fill="black"/>
<path d="M366.991 131.976C368.261 138.582 376.645 139.344 376.645 132.992C376.645 129.181 375.121 127.657 371.31 127.657C367.753 127.657 366.483 128.927 366.991 131.976Z" fill="black"/>
<path d="M0.62207 155.605C0.62207 158.908 2.40056 160.686 5.70347 160.686C9.00637 160.686 10.7849 158.908 10.7849 155.605C10.7849 152.302 9.00637 150.523 5.70347 150.523C2.40056 150.523 0.62207 152.302 0.62207 155.605Z" fill="black"/>
<path d="M264.855 155.859C264.855 159.416 266.125 160.686 269.174 160.178C275.78 158.908 276.542 150.523 270.19 150.523C266.379 150.523 264.855 152.048 264.855 155.859Z" fill="black"/>
<path d="M23.4883 165.513C23.4883 170.087 25.5208 170.595 40.765 171.357C56.2633 172.119 57.7877 172.627 58.5499 177.963C59.5662 185.585 67.6964 184.315 68.7127 176.438C69.729 169.324 78.3674 168.816 80.1458 175.676C81.6703 181.774 80.1458 183.552 73.7941 183.552C70.9993 183.552 69.2208 185.331 69.2208 188.634C69.2208 192.953 70.9993 193.715 80.654 193.715C90.3086 193.715 92.0871 192.953 92.0871 188.634C92.0871 185.331 93.8656 183.552 97.1685 183.552C100.471 183.552 102.25 181.774 102.25 178.471C102.25 175.168 100.471 173.39 97.4226 173.39C94.1197 173.39 92.0871 171.357 91.579 167.546C90.8168 162.21 89.8005 161.956 57.2796 161.194C25.0127 160.686 23.4883 160.686 23.4883 165.513Z" fill="black"/>
<path d="M150.523 178.725C150.523 182.282 151.794 183.552 154.842 183.044C161.448 181.774 162.21 173.39 155.859 173.39C152.048 173.39 150.523 174.914 150.523 178.725Z" fill="black"/>
<path d="M310.587 183.552C310.587 191.937 311.349 193.715 315.669 193.715C319.988 193.715 320.496 195.748 321.258 210.738C322.02 226.49 322.528 228.015 327.864 228.777C332.945 229.539 333.453 231.063 333.453 246.053C333.453 260.535 333.962 262.314 338.535 262.314C341.838 262.314 343.616 260.535 343.616 257.233C343.616 253.93 345.395 252.151 348.698 252.151C353.017 252.151 353.525 250.119 354.287 234.874C355.049 219.63 355.558 217.852 360.639 217.09C364.704 216.581 366.228 217.852 366.991 222.171C368.007 230.047 375.883 231.317 377.153 223.695C377.662 219.884 379.948 217.598 383.759 217.09C388.587 216.327 389.349 214.803 389.349 204.894C389.349 195.494 390.111 193.715 394.43 193.715C397.733 193.715 399.512 191.937 399.512 188.634C399.512 184.315 397.733 183.552 389.349 183.552H379.186V194.985C379.186 205.402 378.678 206.419 372.834 206.419C368.261 206.419 366.483 205.148 366.483 201.337C366.483 198.034 364.704 196.256 361.401 196.256C358.098 196.256 356.32 198.034 356.32 201.337C356.32 205.148 354.541 206.419 349.968 206.419C345.395 206.419 343.616 205.148 343.616 201.591C343.616 198.288 341.584 196.256 338.027 195.748C334.216 195.24 331.929 192.953 331.421 189.142C330.913 185.585 328.88 183.552 325.577 183.552C322.528 183.552 320.75 181.774 320.75 178.471C320.75 175.168 318.971 173.39 315.669 173.39C311.349 173.39 310.587 175.168 310.587 183.552ZM343.616 213.024C343.616 218.36 342.6 219.376 338.027 218.614C334.216 218.106 331.929 215.819 331.421 212.008C330.659 207.435 331.675 206.419 337.01 206.419C342.346 206.419 343.616 207.689 343.616 213.024Z" fill="black"/>
<path d="M412.723 177.709C413.994 184.315 422.378 185.077 422.378 178.725C422.378 174.914 420.853 173.39 417.042 173.39C413.485 173.39 412.215 174.66 412.723 177.709Z" fill="black"/>
<path d="M0.62207 188.634C0.62207 192.953 2.40056 193.715 12.0552 193.715C22.7261 193.715 23.4884 194.223 23.4884 200.321C23.4884 206.165 24.2506 206.673 34.1593 205.91C42.0354 205.402 45.3384 203.878 45.8465 200.829C46.3546 198.034 44.5761 196.256 40.7651 195.748C36.954 195.24 34.6674 192.953 34.1593 189.142C33.3971 184.06 31.8727 183.552 16.8825 183.552C2.40056 183.552 0.62207 184.06 0.62207 188.634Z" fill="black"/>
<path d="M12.5632 207.943C8.49811 212.008 11.0388 216.581 17.3906 216.581C22.2179 216.581 23.7423 215.311 22.9801 212.262C22.2179 207.435 15.6121 204.894 12.5632 207.943Z" fill="black"/>
<path d="M69.2209 211.5C69.2209 214.803 70.9994 216.581 74.3023 216.581C77.6052 216.581 79.3837 214.803 79.3837 211.5C79.3837 208.197 77.6052 206.419 74.3023 206.419C70.9994 206.419 69.2209 208.197 69.2209 211.5Z" fill="black"/>
<path d="M114.953 218.106V229.539L125.624 228.777C133.5 228.269 136.803 226.744 137.312 223.695C137.82 220.901 136.041 219.122 132.23 218.614C128.419 218.106 126.132 215.819 125.624 212.008C125.116 208.451 123.084 206.419 119.781 206.419C115.716 206.419 114.953 208.197 114.953 218.106Z" fill="black"/>
<path d="M173.39 211.5C173.39 215.819 175.168 216.581 183.552 216.581C191.937 216.581 193.715 215.819 193.715 211.5C193.715 207.181 191.937 206.419 183.552 206.419C175.168 206.419 173.39 207.181 173.39 211.5Z" fill="black"/>
<path d="M206.418 211.5C206.418 215.819 208.451 216.327 223.695 217.09L240.718 217.852V240.718V263.584L230.047 264.347C221.155 265.109 219.122 266.125 219.122 270.19C219.122 273.239 220.9 275.017 224.203 275.017C227.506 275.017 229.285 276.796 229.285 280.099C229.285 284.672 231.063 285.18 245.799 285.18C260.535 285.18 262.314 284.672 262.314 280.099C262.314 276.796 260.535 275.017 257.232 275.017C253.421 275.017 252.151 273.239 252.151 268.666C252.151 262.568 252.659 262.314 268.666 262.314C283.402 262.314 285.18 261.806 285.18 257.233C285.18 253.93 283.402 252.151 280.099 252.151C276.796 252.151 275.017 250.373 275.017 247.324C275.017 244.021 272.985 241.988 269.428 241.48C264.6 240.972 263.33 238.94 262.822 229.793C262.06 221.155 261.043 219.122 256.978 219.122C253.421 219.122 252.151 217.344 252.151 212.77C252.151 206.419 251.897 206.419 229.285 206.419C208.197 206.419 206.418 206.927 206.418 211.5Z" fill="black"/>
<path d="M402.052 211.5C402.052 215.819 403.831 216.581 412.215 216.581C420.599 216.581 422.378 215.819 422.378 211.5C422.378 207.181 420.599 206.419 412.215 206.419C403.831 206.419 402.052 207.181 402.052 211.5Z" fill="black"/>
<path d="M0.62207 224.204C0.62207 227.506 2.40056 229.285 5.70347 229.285C9.00637 229.285 10.7849 227.506 10.7849 224.204C10.7849 220.901 9.00637 219.122 5.70347 219.122C2.40056 219.122 0.62207 220.901 0.62207 224.204Z" fill="black"/>
<path d="M23.4884 223.949C23.4884 227.252 21.4558 229.285 17.8989 229.793C14.596 230.301 11.8012 232.588 11.2931 234.874C10.5308 238.94 12.5634 239.448 28.3157 239.448C44.5762 239.448 46.3547 238.94 46.3547 234.366C46.3547 227.506 56.5175 227.506 58.296 234.112C59.3122 237.923 62.107 239.448 70.2372 239.956C78.6215 240.464 80.6541 241.734 80.6541 245.799C80.6541 250.119 78.6215 250.881 68.7128 251.643C57.7878 252.405 56.5175 251.897 56.5175 247.324C56.5175 243.767 54.9931 241.988 51.4361 241.988C47.1169 241.988 46.3547 243.767 46.3547 252.151V262.314H62.6151C75.0646 262.314 79.1297 263.33 80.4 266.379C82.9407 272.731 79.8919 275.017 69.221 275.017C59.3122 275.017 59.3122 275.017 58.55 285.688C58.0419 294.835 56.7715 296.867 52.1983 297.376C47.625 298.138 46.3547 296.867 46.3547 293.056C46.3547 289.499 44.8303 287.721 41.2733 287.721C37.9704 287.721 36.1919 289.499 36.1919 292.802C36.1919 296.105 37.9704 297.884 41.2733 297.884C44.5762 297.884 46.3547 299.662 46.3547 302.711C46.3547 306.014 48.3872 308.047 52.1983 308.555C55.7553 309.063 58.0419 311.349 58.55 315.16C59.5663 322.783 67.6965 321.512 68.7128 313.636C69.221 310.079 71.2535 308.047 74.5564 308.047C77.6053 308.047 79.3837 306.268 79.3837 302.965C79.3837 299.662 77.6053 297.884 74.3024 297.884C70.4913 297.884 69.221 296.105 69.221 291.532C69.221 285.688 70.2372 285.18 80.6541 285.18H92.0872V273.747C92.0872 264.092 92.8494 262.314 97.1686 262.314C100.472 262.314 102.25 260.535 102.25 257.233C102.25 253.422 104.029 252.151 108.602 252.151C117.24 252.151 117.24 261.552 108.602 264.855C103.266 266.887 102.25 268.92 102.25 277.558C102.25 285.942 101.488 287.721 97.1686 287.721C92.8494 287.721 92.0872 289.499 92.0872 298.138C92.0872 306.268 91.071 308.809 87.2599 309.825C84.4651 310.587 81.9244 313.128 81.1622 315.923C80.4 318.717 77.6053 320.75 74.5564 320.75C70.9994 320.75 69.221 322.274 69.221 325.831C69.221 330.151 70.9994 330.913 80.6541 330.913C90.3088 330.913 92.0872 330.151 92.0872 325.831C92.0872 322.529 93.8657 320.75 96.9146 320.75C99.4553 320.75 102.25 323.037 103.012 325.831C103.774 328.88 106.569 330.913 109.618 330.913C114.191 330.913 114.954 332.437 114.954 342.346C114.954 352.001 115.716 353.779 120.035 353.779C124.862 353.779 125.116 352.001 125.116 325.831C125.116 299.662 124.862 297.884 120.035 297.884C116.224 297.884 114.954 296.105 114.954 291.278C114.954 285.942 115.97 284.926 120.797 285.688C124.354 286.197 126.641 288.483 127.149 292.294C127.657 296.105 129.435 297.884 132.23 297.376C135.279 296.867 136.804 293.565 137.312 285.688C138.074 276.288 138.836 275.017 144.426 275.017C148.745 275.017 150.523 276.288 150.523 280.099C150.523 283.402 152.302 285.18 155.605 285.18C159.416 285.18 160.686 286.959 160.686 291.532C160.686 296.105 159.416 297.884 155.605 297.884C152.302 297.884 150.523 299.662 150.523 302.965C150.523 306.268 152.302 308.047 155.605 308.047C159.924 308.047 160.686 309.825 160.686 320.75V333.454H149.253H137.82V349.968V366.229L120.797 366.991L103.52 367.753V377.916V388.079L120.797 388.841L137.82 389.603V405.863V422.378H149.253C158.908 422.378 160.686 421.616 160.686 417.297C160.686 413.994 162.465 412.215 165.767 412.215C170.087 412.215 170.849 410.437 170.849 400.782C170.849 391.127 170.087 389.349 165.767 389.349C161.448 389.349 160.686 391.127 160.686 400.782C160.686 411.199 160.178 412.215 154.334 412.215C148.491 412.215 147.983 411.199 147.983 400.782C147.983 391.127 147.22 389.349 142.901 389.349C138.582 389.349 137.82 387.57 137.82 377.916C137.82 368.261 138.582 366.483 142.901 366.483C147.22 366.483 147.983 364.704 147.983 355.049C147.983 344.633 148.491 343.616 154.08 343.616C159.67 343.616 160.432 344.887 161.194 354.287C161.702 363.434 162.973 365.466 167.8 365.974C171.357 366.483 173.39 368.515 173.39 371.818C173.39 374.867 175.168 376.645 178.217 376.645C181.52 376.645 183.552 378.678 184.06 382.489C184.823 387.316 186.347 388.079 194.985 388.079C205.148 388.079 205.148 388.079 205.91 377.154C206.673 368.515 207.689 366.483 211.754 366.483C214.803 366.483 216.581 364.704 216.581 361.401C216.581 358.098 214.803 356.32 211.5 356.32C208.197 356.32 206.419 358.098 206.419 361.401C206.419 365.72 204.64 366.483 194.985 366.483C184.569 366.483 183.552 365.974 183.552 360.131C183.552 354.287 184.569 353.779 194.985 353.779C204.64 353.779 206.419 353.017 206.419 348.698C206.419 345.395 208.197 343.616 211.5 343.616C214.803 343.616 216.581 341.838 216.581 338.535C216.581 334.216 214.803 333.454 206.419 333.454C198.034 333.454 196.256 334.216 196.256 338.535C196.256 342.346 194.477 343.616 189.904 343.616C185.331 343.616 183.552 342.346 183.552 338.789C183.552 335.486 181.52 333.454 177.963 332.945C172.627 332.183 172.119 330.659 171.357 314.906C170.595 298.138 170.595 297.884 177.201 297.884C181.774 297.884 183.552 299.154 183.552 302.965C183.552 306.268 185.331 308.047 188.634 308.047C193.207 308.047 193.715 306.268 193.715 291.532V275.017H182.028C171.611 275.017 170.595 274.509 171.357 269.174C171.865 265.617 174.152 263.33 177.963 262.822C185.585 261.552 184.315 253.676 176.438 252.659C168.562 251.389 169.579 240.972 177.963 239.956C186.093 238.685 185.585 229.285 177.201 229.285C172.627 229.285 170.849 228.015 170.849 224.204C170.849 220.901 169.07 219.122 165.767 219.122C161.448 219.122 160.686 220.901 160.686 230.809C160.686 241.226 160.178 242.242 155.097 241.48C151.285 240.972 148.999 238.685 148.491 234.874C147.22 226.744 137.82 227.252 137.82 235.637C137.82 241.48 136.804 241.988 126.641 241.988C116.732 241.988 115.208 241.226 114.445 236.399C113.429 228.015 105.807 227.506 103.774 235.383C102.758 239.702 100.472 241.988 97.1686 241.988C92.8494 241.988 92.0872 240.21 92.0872 230.301C92.0872 219.884 91.5791 218.868 86.4977 219.63C83.1948 220.138 80.6541 222.171 80.6541 224.204C80.6541 226.236 78.1134 228.269 75.0646 228.777C70.4913 229.539 69.221 228.269 69.221 224.458C69.221 219.376 67.6965 219.122 46.3547 219.122C25.521 219.122 23.4884 219.63 23.4884 223.949ZM150.015 257.741C149.507 261.552 147.22 263.838 143.663 264.347C139.852 264.855 137.82 266.887 137.82 270.19C137.82 273.747 136.041 275.017 131.468 275.017C125.624 275.017 125.116 274.001 125.116 263.584V252.151H138.074C150.015 252.151 150.777 252.659 150.015 257.741Z" fill="black"/>
<path d="M196.256 235.637V252.405L212.262 251.643L228.015 250.881L228.777 239.956L229.539 229.285H218.106C208.197 229.285 206.419 228.523 206.419 224.204C206.419 220.901 204.64 219.122 201.337 219.122C196.764 219.122 196.256 220.901 196.256 235.637Z" fill="black"/>
<path d="M389.857 223.441C391.127 230.047 399.512 230.809 399.512 224.458C399.512 220.647 397.987 219.122 394.176 219.122C390.619 219.122 389.349 220.392 389.857 223.441Z" fill="black"/>
<path d="M402.052 234.366C402.052 238.685 403.831 239.448 412.215 239.448C420.599 239.448 422.378 238.685 422.378 234.366C422.378 230.047 420.599 229.285 412.215 229.285C403.831 229.285 402.052 230.047 402.052 234.366Z" fill="black"/>
<path d="M12.5632 253.676C8.49811 257.741 11.0388 262.314 17.3906 262.314C22.2179 262.314 23.7423 261.044 22.9801 257.995C22.2179 253.167 15.6121 250.627 12.5632 253.676Z" fill="black"/>
<path d="M402.052 263.584C402.052 273.239 402.814 275.017 407.134 275.017C410.437 275.017 412.215 276.796 412.215 280.099C412.215 283.402 413.994 285.18 417.296 285.18C420.599 285.18 422.378 283.402 422.378 280.099C422.378 276.796 420.599 275.017 417.296 275.017C413.485 275.017 412.215 273.239 412.215 268.666C412.215 264.092 413.485 262.314 417.296 262.314C420.599 262.314 422.378 260.535 422.378 257.233C422.378 252.913 420.599 252.151 412.215 252.151H402.052V263.584Z" fill="black"/>
<path d="M0.62207 275.017V285.18H17.1366C31.8727 285.18 33.6511 284.672 33.6511 280.353C33.6511 277.05 35.6837 275.017 39.2407 274.509C42.5436 274.001 45.3384 271.715 45.8465 269.174C46.6087 265.617 44.8302 264.855 35.1756 264.855C25.2668 264.855 23.4884 265.617 23.4884 269.936C23.4884 273.747 21.7099 275.017 17.1366 275.017C12.5633 275.017 10.7849 273.747 10.7849 269.936C10.7849 266.633 9.00637 264.855 5.70347 264.855C1.38428 264.855 0.62207 266.633 0.62207 275.017Z" fill="black"/>
<path d="M206.418 280.099C206.418 283.402 208.197 285.18 211.5 285.18C214.803 285.18 216.581 283.402 216.581 280.099C216.581 276.796 214.803 275.017 211.5 275.017C208.197 275.017 206.418 276.796 206.418 280.099Z" fill="black"/>
<path d="M379.186 297.884C379.186 306.268 379.948 308.047 384.267 308.047C388.587 308.047 389.349 306.268 389.349 297.884C389.349 289.499 388.587 287.721 384.267 287.721C379.948 287.721 379.186 289.499 379.186 297.884Z" fill="black"/>
<path d="M0.62207 302.965C0.62207 307.284 2.40056 308.047 12.0552 308.047C22.4721 308.047 23.4884 308.555 23.4884 314.398C23.4884 320.242 22.4721 320.75 12.0552 320.75C2.40056 320.75 0.62207 321.512 0.62207 325.831C0.62207 330.659 2.40056 330.913 23.7424 330.913C44.3221 330.913 46.6087 330.405 45.8465 326.34C45.3384 324.053 42.5436 321.766 39.2407 321.258C34.4134 320.496 33.6511 318.972 33.6511 309.063V297.884H17.1366C2.40056 297.884 0.62207 298.392 0.62207 302.965Z" fill="black"/>
<path d="M401.544 303.473C401.036 307.284 398.749 309.571 395.192 310.079C390.365 310.841 389.349 312.62 389.349 321.004C389.349 329.134 390.111 330.913 394.43 330.913C397.733 330.913 399.512 329.134 399.512 325.831C399.512 322.02 401.29 320.75 405.863 320.75C410.437 320.75 412.215 322.02 412.215 325.831C412.215 329.134 413.994 330.913 417.297 330.913C420.599 330.913 422.378 329.134 422.378 325.831C422.378 322.529 420.599 320.75 417.297 320.75C413.486 320.75 412.215 318.972 412.215 314.398C412.215 309.825 413.486 308.047 417.297 308.047C420.599 308.047 422.378 306.268 422.378 302.965C422.378 298.646 420.599 297.884 412.469 297.884C404.085 297.884 402.306 298.9 401.544 303.473Z" fill="black"/>
<path d="M137.82 315.669C137.82 318.972 139.598 320.75 142.901 320.75C146.204 320.75 147.983 318.972 147.983 315.669C147.983 312.366 146.204 310.587 142.901 310.587C139.598 310.587 137.82 312.366 137.82 315.669Z" fill="black"/>
<path d="M196.256 315.669C196.256 319.988 198.034 320.75 206.419 320.75C214.803 320.75 216.581 319.988 216.581 315.669C216.581 311.349 214.803 310.587 206.419 310.587C198.034 310.587 196.256 311.349 196.256 315.669Z" fill="black"/>
<path d="M183.552 325.831C183.552 329.134 185.331 330.913 188.634 330.913C191.937 330.913 193.715 329.134 193.715 325.831C193.715 322.529 191.937 320.75 188.634 320.75C185.331 320.75 183.552 322.529 183.552 325.831Z" fill="black"/>
<path d="M219.122 325.577C219.122 329.388 220.646 330.913 224.458 330.913C230.809 330.913 230.047 322.529 223.441 321.258C220.392 320.75 219.122 322.02 219.122 325.577Z" fill="black"/>
<path d="M92.0872 343.616C92.0872 352.001 92.8494 353.779 97.1686 353.779C101.488 353.779 102.25 352.001 102.25 343.616C102.25 335.232 101.488 333.454 97.1686 333.454C92.8494 333.454 92.0872 335.232 92.0872 343.616Z" fill="black"/>
<path d="M229.285 338.535C229.285 341.838 231.063 343.616 234.366 343.616C237.669 343.616 239.448 341.838 239.448 338.535C239.448 335.232 237.669 333.454 234.366 333.454C231.063 333.454 229.285 335.232 229.285 338.535Z" fill="black"/>
<path d="M0.62207 382.997V422.378H40.0029H79.3837V382.997V343.616H40.0029H0.62207V382.997ZM69.2209 382.997V412.215H40.0029H10.7849V382.997V353.779H40.0029H69.2209V382.997Z" fill="black"/>
<path d="M23.4883 382.997V399.512H40.0028H56.5174V382.997V366.483H40.0028H23.4883V382.997Z" fill="black"/>
<path d="M219.122 348.444C219.122 352.255 220.646 353.779 224.458 353.779C228.015 353.779 229.285 352.509 228.777 349.46C227.506 342.854 219.122 342.092 219.122 348.444Z" fill="black"/>
<path d="M92.0872 394.43C92.0872 397.733 93.8656 399.512 97.1686 399.512C100.471 399.512 102.25 397.733 102.25 394.43C102.25 391.127 100.471 389.349 97.1686 389.349C93.8656 389.349 92.0872 391.127 92.0872 394.43Z" fill="black"/>
<path d="M206.419 400.528C206.419 410.437 205.656 412.215 201.337 412.215C198.034 412.215 196.256 413.994 196.256 417.297C196.256 420.599 198.034 422.378 201.337 422.378C204.64 422.378 206.419 420.599 206.419 417.297C206.419 413.485 208.197 412.215 212.77 412.215C217.344 412.215 219.122 413.485 219.122 417.297C219.122 421.616 220.901 422.378 229.285 422.378H239.448V412.215C239.448 403.831 238.686 402.052 234.62 402.052C231.317 402.052 229.285 400.02 228.777 396.209C228.269 391.635 226.236 390.365 217.344 389.857L206.419 389.095V400.528Z" fill="black"/>
<path d="M103.012 407.134C102.25 409.929 99.4552 412.215 96.9145 412.215C93.8656 412.215 92.0872 413.994 92.0872 417.297C92.0872 421.616 93.8656 422.378 103.52 422.378H114.953V412.215C114.953 403.577 114.191 402.052 109.618 402.052C106.569 402.052 103.774 404.085 103.012 407.134Z" fill="black"/>
<path d="M333.453 407.134C333.453 410.945 331.675 412.215 327.102 412.215C322.528 412.215 320.75 413.485 320.75 417.297C320.75 422.124 322.528 422.378 348.698 422.378C374.867 422.378 376.645 422.124 376.645 417.297C376.645 412.723 374.867 412.215 360.131 412.215C345.395 412.215 343.616 411.707 343.616 407.134C343.616 403.831 341.838 402.052 338.535 402.052C335.232 402.052 333.453 403.831 333.453 407.134Z" fill="black"/>
<path d="M173.39 417.042C173.39 420.854 174.914 422.378 178.725 422.378C182.282 422.378 183.552 421.108 183.044 418.059C181.774 411.453 173.39 410.691 173.39 417.042Z" fill="black"/>
</svg>
