<svg width="32" height="32" viewBox="0 0 32 32" fill="none" xmlns="http://www.w3.org/2000/svg">
<path d="M26.7075 15.2924C26.8005 15.3853 26.8742 15.4956 26.9246 15.617C26.9749 15.7384 27.0008 15.8685 27.0008 15.9999C27.0008 16.1314 26.9749 16.2615 26.9246 16.3829C26.8742 16.5043 26.8005 16.6146 26.7075 16.7074L16.7075 26.7074C16.6146 26.8004 16.5043 26.8742 16.3829 26.9245C16.2615 26.9748 16.1314 27.0007 16 27.0007C15.8686 27.0007 15.7385 26.9748 15.6171 26.9245C15.4957 26.8742 15.3854 26.8004 15.2925 26.7074L5.2925 16.7074C5.10486 16.5198 4.99944 16.2653 4.99944 15.9999C4.99944 15.7346 5.10486 15.4801 5.2925 15.2924C5.48014 15.1048 5.73464 14.9994 6 14.9994C6.26536 14.9994 6.51986 15.1048 6.7075 15.2924L16 24.5862L25.2925 15.2924C25.3854 15.1995 25.4957 15.1257 25.6171 15.0754C25.7385 15.0251 25.8686 14.9992 26 14.9992C26.1314 14.9992 26.2615 15.0251 26.3829 15.0754C26.5043 15.1257 26.6146 15.1995 26.7075 15.2924ZM15.2925 16.7074C15.3854 16.8004 15.4957 16.8742 15.6171 16.9245C15.7385 16.9748 15.8686 17.0007 16 17.0007C16.1314 17.0007 16.2615 16.9748 16.3829 16.9245C16.5043 16.8742 16.6146 16.8004 16.7075 16.7074L26.7075 6.70745C26.8951 6.5198 27.0006 6.26531 27.0006 5.99995C27.0006 5.73458 26.8951 5.48009 26.7075 5.29245C26.5199 5.1048 26.2654 4.99939 26 4.99939C25.7346 4.99939 25.4801 5.10481 25.2925 5.29245L16 14.5862L6.7075 5.29245C6.51986 5.1048 6.26536 4.99939 6 4.99939C5.73464 4.99939 5.48014 5.1048 5.2925 5.29245C5.10486 5.48009 4.99944 5.73458 4.99944 5.99995C4.99944 6.26531 5.10486 6.5198 5.2925 6.70745L15.2925 16.7074Z" fill="#4D5566"/>
</svg>
