<svg width="20" height="20" viewBox="0 0 20 20" fill="none" xmlns="http://www.w3.org/2000/svg">
<g id="Frame">
<path id="Vector" d="M18.0414 17.1876C17.9866 17.2826 17.9076 17.3615 17.8126 17.4164C17.7176 17.4712 17.6098 17.5001 17.5 17.5001H2.50003C2.39037 17.4999 2.28268 17.471 2.18776 17.4161C2.09283 17.3612 2.01402 17.2823 1.95925 17.1873C1.90447 17.0923 1.87564 16.9845 1.87567 16.8749C1.8757 16.7652 1.90458 16.6575 1.95941 16.5626C3.14925 14.5055 4.98284 13.0305 7.12268 12.3313C6.06422 11.7012 5.24186 10.741 4.78189 9.59833C4.32193 8.45561 4.24978 7.19349 4.57655 6.0058C4.90331 4.81811 5.6109 3.77051 6.59067 3.0239C7.57044 2.27728 8.76821 1.87292 10 1.87292C11.2318 1.87292 12.4296 2.27728 13.4094 3.0239C14.3892 3.77051 15.0967 4.81811 15.4235 6.0058C15.7503 7.19349 15.6781 8.45561 15.2182 9.59833C14.7582 10.741 13.9358 11.7012 12.8774 12.3313C15.0172 13.0305 16.8508 14.5055 18.0406 16.5626C18.0956 16.6575 18.1246 16.7652 18.1248 16.8749C18.1249 16.9847 18.0962 17.0925 18.0414 17.1876Z" fill="#4D5566"/>
</g>
</svg>
