<svg width="20" height="21" viewBox="0 0 20 21" fill="none" xmlns="http://www.w3.org/2000/svg">
<g id="Frame">
<path id="Vector" d="M18.75 8.9375C18.75 9.37015 18.6217 9.79308 18.3813 10.1528C18.141 10.5125 17.7993 10.7929 17.3996 10.9585C16.9999 11.1241 16.5601 11.1674 16.1357 11.083C15.7114 10.9986 15.3216 10.7902 15.0157 10.4843C14.7098 10.1784 14.5014 9.78859 14.417 9.36426C14.3326 8.93993 14.3759 8.50009 14.5415 8.10038C14.7071 7.70067 14.9875 7.35903 15.3472 7.11866C15.7069 6.8783 16.1299 6.75 16.5625 6.75C17.1427 6.75 17.6991 6.98047 18.1093 7.39071C18.5195 7.80094 18.75 8.35734 18.75 8.9375ZM5.625 8.9375C5.625 8.50485 5.49671 8.08192 5.25634 7.72219C5.01598 7.36246 4.67433 7.08208 4.27462 6.91651C3.87491 6.75095 3.43507 6.70763 3.01074 6.79203C2.58641 6.87644 2.19663 7.08478 1.8907 7.39071C1.58478 7.69663 1.37644 8.08641 1.29203 8.51074C1.20763 8.93507 1.25095 9.37491 1.41651 9.77462C1.58208 10.1743 1.86246 10.516 2.22219 10.7563C2.58192 10.9967 3.00485 11.125 3.4375 11.125C4.01766 11.125 4.57406 10.8945 4.9843 10.4843C5.39453 10.0741 5.625 9.51766 5.625 8.9375ZM7.1875 7.375C7.62015 7.375 8.04308 7.24671 8.40281 7.00634C8.76254 6.76598 9.04292 6.42433 9.20849 6.02462C9.37405 5.62491 9.41737 5.18507 9.33297 4.76074C9.24856 4.33641 9.04022 3.94663 8.7343 3.6407C8.42837 3.33478 8.03859 3.12644 7.61426 3.04203C7.18993 2.95763 6.75009 3.00095 6.35038 3.16651C5.95067 3.33208 5.60903 3.61246 5.36866 3.97219C5.1283 4.33192 5 4.75485 5 5.1875C5 5.76766 5.23047 6.32406 5.64071 6.7343C6.05094 7.14453 6.60734 7.375 7.1875 7.375ZM12.8125 7.375C13.2451 7.375 13.6681 7.24671 14.0278 7.00634C14.3875 6.76598 14.6679 6.42433 14.8335 6.02462C14.9991 5.62491 15.0424 5.18507 14.958 4.76074C14.8736 4.33641 14.6652 3.94663 14.3593 3.6407C14.0534 3.33478 13.6636 3.12644 13.2393 3.04203C12.8149 2.95763 12.3751 3.00095 11.9754 3.16651C11.5757 3.33208 11.234 3.61246 10.9937 3.97219C10.7533 4.33192 10.625 4.75485 10.625 5.1875C10.625 5.76766 10.8555 6.32406 11.2657 6.7343C11.6759 7.14453 12.2323 7.375 12.8125 7.375ZM14.6188 12.1297C14.3013 11.9546 14.0215 11.7185 13.7953 11.4351C13.5692 11.1517 13.4011 10.8265 13.3008 10.4781C13.093 9.76348 12.6588 9.13557 12.0636 8.68878C11.4684 8.24199 10.7443 8.00044 10 8.00044C9.25575 8.00044 8.5316 8.24199 7.93638 8.68878C7.34116 9.13557 6.90703 9.76348 6.69922 10.4781C6.49848 11.1792 6.02787 11.772 5.39063 12.1266C4.77931 12.4573 4.29573 12.9825 4.01635 13.6189C3.73698 14.2554 3.67776 14.9668 3.84807 15.6407C4.01837 16.3146 4.40848 16.9124 4.9567 17.3397C5.50491 17.767 6.17993 17.9994 6.875 18C7.29153 18.0012 7.70399 17.918 8.0875 17.7555C9.31021 17.2512 10.6828 17.2512 11.9055 17.7555C12.6461 18.0776 13.4826 18.1004 14.2397 17.8193C14.9968 17.5382 15.6156 16.9749 15.9665 16.2475C16.3173 15.5201 16.373 14.6851 16.1217 13.9175C15.8705 13.15 15.3318 12.5096 14.6188 12.1305V12.1297Z" fill="#4D5566"/>
</g>
</svg>
