<svg width="50" height="50" viewBox="0 0 50 50" fill="none" xmlns="http://www.w3.org/2000/svg">
<g id="left-arrow">
<path id="Vector" d="M24.6875 4.6875C20.7319 4.6875 16.8651 5.86048 13.5761 8.05811C10.2871 10.2557 7.72367 13.3793 6.20992 17.0338C4.69617 20.6883 4.3001 24.7097 5.0718 28.5893C5.84351 32.4689 7.74832 36.0326 10.5454 38.8296C13.3424 41.6267 16.9061 43.5315 20.7857 44.3032C24.6653 45.0749 28.6866 44.6788 32.3412 43.1651C35.9957 41.6513 39.1193 39.0879 41.3169 35.7989C43.5145 32.5099 44.6875 28.6431 44.6875 24.6875C44.6819 19.3849 42.573 14.3011 38.8235 10.5515C35.0739 6.80203 29.9901 4.6931 24.6875 4.6875ZM28.8529 31.2913C28.9958 31.4343 29.1092 31.604 29.1866 31.7907C29.2639 31.9775 29.3037 32.1777 29.3037 32.3798C29.3037 32.5819 29.2639 32.7821 29.1866 32.9689C29.1092 33.1556 28.9958 33.3253 28.8529 33.4683C28.7099 33.6112 28.5403 33.7246 28.3535 33.8019C28.1667 33.8793 27.9666 33.9191 27.7644 33.9191C27.5623 33.9191 27.3621 33.8793 27.1754 33.8019C26.9886 33.7246 26.8189 33.6112 26.676 33.4683L18.9837 25.776C18.8406 25.6331 18.7271 25.4634 18.6497 25.2766C18.5723 25.0899 18.5324 24.8897 18.5324 24.6875C18.5324 24.4853 18.5723 24.2851 18.6497 24.0984C18.7271 23.9116 18.8406 23.7419 18.9837 23.599L26.676 15.9067C26.8189 15.7638 26.9886 15.6504 27.1754 15.573C27.3621 15.4957 27.5623 15.4559 27.7644 15.4559C27.9666 15.4559 28.1667 15.4957 28.3535 15.573C28.5403 15.6504 28.7099 15.7638 28.8529 15.9067C28.9958 16.0497 29.1092 16.2194 29.1866 16.4061C29.2639 16.5929 29.3037 16.793 29.3037 16.9952C29.3037 17.1973 29.2639 17.3975 29.1866 17.5843C29.1092 17.771 28.9958 17.9407 28.8529 18.0837L22.2471 24.6875L28.8529 31.2913Z" fill="#4D5566"/>
</g>
</svg>
