<svg width="50" height="50" viewBox="0 0 50 50" fill="none" xmlns="http://www.w3.org/2000/svg">
<g id="right-arrow">
<path id="Vector" d="M24.6875 4.6875C20.7319 4.6875 16.8651 5.86048 13.5761 8.05811C10.2871 10.2557 7.72367 13.3793 6.20992 17.0338C4.69617 20.6883 4.3001 24.7097 5.0718 28.5893C5.84351 32.4689 7.74832 36.0326 10.5454 38.8296C13.3424 41.6267 16.9061 43.5315 20.7857 44.3032C24.6653 45.0749 28.6866 44.6788 32.3412 43.1651C35.9957 41.6513 39.1193 39.0879 41.3169 35.7989C43.5145 32.5099 44.6875 28.6431 44.6875 24.6875C44.6819 19.3849 42.573 14.3011 38.8235 10.5515C35.0739 6.80203 29.9901 4.6931 24.6875 4.6875ZM30.3913 25.776L22.699 33.4683C22.5561 33.6112 22.3864 33.7246 22.1997 33.8019C22.0129 33.8793 21.8127 33.9191 21.6106 33.9191C21.4084 33.9191 21.2083 33.8793 21.0215 33.8019C20.8348 33.7246 20.6651 33.6112 20.5221 33.4683C20.3792 33.3253 20.2658 33.1556 20.1884 32.9689C20.1111 32.7821 20.0713 32.5819 20.0713 32.3798C20.0713 32.1777 20.1111 31.9775 20.1884 31.7907C20.2658 31.604 20.3792 31.4343 20.5221 31.2913L27.1279 24.6875L20.5221 18.0837C20.2334 17.795 20.0713 17.4034 20.0713 16.9952C20.0713 16.5869 20.2334 16.1954 20.5221 15.9067C20.8108 15.618 21.2023 15.4559 21.6106 15.4559C22.0188 15.4559 22.4104 15.618 22.699 15.9067L30.3913 23.599C30.5344 23.7419 30.6479 23.9116 30.7253 24.0984C30.8027 24.2851 30.8426 24.4853 30.8426 24.6875C30.8426 24.8897 30.8027 25.0899 30.7253 25.2766C30.6479 25.4634 30.5344 25.6331 30.3913 25.776Z" fill="#4D5566"/>
</g>
</svg>
